# xmcd
#
# Track frame offsets:
#	150
#	8466
#	17171
#	30417
#	39418
#	56990
#	62790
#	78730
#	92564
#	106437
#	120432
#	133213
#	145339
#	153684
#	165449
#	179809
#
# Disc length: 2592 seconds
#
# Revision: 1
# Processed by: cddbd v1.5.2PL0 Copyright (c) Steve Scherf et al.
# Submitted via: audiograbber 1.83.01
#
DISCID=d70a1e10
DTITLE=Various Artist - WEIHNACHTSMARKT
DYEAR=1900
DGENRE=Christmas
TTITLE0=Silbereisen Florian - Jingle Bells
TTITLE1=Original Nabtal Duo - O Tannenbaum
TTITLE2=Olivier Geraldine - Ave Maria
TTITLE3=Edenharder Wolfgang - Ihr Kinderlein Kommet
TTITLE4=Almer Margret - Stille Nacht
TTITLE5=Weck Peter and Wie Carola - Weihnachtslied
TTITLE6=Pitztaler Nachtigalln - Das Christkind hat Deinen Brief Verloren
TTITLE7=Harzbecker Astrid - Der Kleine Trommelmann
TTITLE8=Baumann Ludwig and Isabella - Süßer die Glocken Nie Klingen
TTITLE9=Jana - Winter Im Oberland
TTITLE10=Alpenrebellen - Weihnachtszeit Staade Zeit
TTITLE11=Felice - Zauber Einer Winternacht
TTITLE12=Fischers - Morgen Kommt Der Weihnachtsmann
TTITLE13=Viellechner Sepp - Andachtsjodler
TTITLE14=Vreni and Rudi - Weihnacht Im Alpenland
TTITLE15=Original Naabtal Duo and Mross Stefan - Es Wird Schon Gleich Dunkel
EXTD=
EXTT0=
EXTT1=
EXTT2=
EXTT3=
EXTT4=
EXTT5=
EXTT6=
EXTT7=
EXTT8=
EXTT9=
EXTT10=
EXTT11=
EXTT12=
EXTT13=
EXTT14=
EXTT15=
PLAYORDER=
